<?xml version="1.0" encoding="UTF-8"?>
<svg viewBox="0 0 66 98" id="svg59" xmlns="http://www.w3.org/2000/svg">
  <rect x="5" y="-8.8817842e-16" width="58" height="91" rx="3.2" fill="#5e6e70" opacity="0.42" id="rect1"/>
  <rect x="8" y="3" width="58" height="91" rx="3.2" fill="#333333" opacity="0.55" id="rect2"/>
  <rect x="0" y="7" width="58" height="91" rx="3.2" fill="#1c1e20" id="rect3"/>
  <rect x="5" y="13" width="48" height="20" rx="1.4" fill="#5e6e70" id="rect4"/>
  <rect x="9" y="17" width="27" height="12" fill="#131313" id="rect5"/>
  <rect x="11" y="19" width="23" height="8" fill="#1a1a1a" id="rect6"/>
  <path d="m 14,21.1 3,1.9 -3,1.9 z" fill="#c9c8c1" id="path6"/>
  <rect x="19" y="24.1" width="8" height="1.1" fill="#c9c8c1" id="rect7"/>
  <rect x="5" y="38" width="48" height="11" fill="#c9c8c1" id="rect14"/>
  <rect x="8" y="41" width="32" height="5" fill="#9a9a9a" id="rect15"/>
  <rect x="43" y="41" width="6" height="5" fill="#333333" id="rect16"/>
  <rect x="5" y="54" width="48" height="15" fill="#333333" id="rect17"/>
  <g fill="#131313" id="g49" transform="translate(-8,-5)">
    <rect x="16" y="62" width="2" height="2" id="rect18"/>
    <rect x="20" y="62" width="2" height="2" id="rect19"/>
    <rect x="24" y="62" width="2" height="2" id="rect20"/>
    <rect x="28" y="62" width="2" height="2" id="rect21"/>
    <rect x="32" y="62" width="2" height="2" id="rect22"/>
    <rect x="36" y="62" width="2" height="2" id="rect23"/>
    <rect x="40" y="62" width="2" height="2" id="rect24"/>
    <rect x="44" y="62" width="2" height="2" id="rect25"/>
    <rect x="48" y="62" width="2" height="2" id="rect26"/>
    <rect x="52" y="62" width="2" height="2" id="rect27"/>
    <rect x="56" y="62" width="2" height="2" id="rect28"/>
    <rect x="18" y="66" width="2" height="2" id="rect29"/>
    <rect x="22" y="66" width="2" height="2" id="rect30"/>
    <rect x="26" y="66" width="2" height="2" id="rect31"/>
    <rect x="30" y="66" width="2" height="2" id="rect32"/>
    <rect x="34" y="66" width="2" height="2" id="rect33"/>
    <rect x="38" y="66" width="2" height="2" id="rect34"/>
    <rect x="42" y="66" width="2" height="2" id="rect35"/>
    <rect x="46" y="66" width="2" height="2" id="rect36"/>
    <rect x="50" y="66" width="2" height="2" id="rect37"/>
    <rect x="54" y="66" width="2" height="2" id="rect38"/>
    <rect x="16" y="70" width="2" height="2" id="rect39"/>
    <rect x="20" y="70" width="2" height="2" id="rect40"/>
    <rect x="24" y="70" width="2" height="2" id="rect41"/>
    <rect x="28" y="70" width="2" height="2" id="rect42"/>
    <rect x="32" y="70" width="2" height="2" id="rect43"/>
    <rect x="36" y="70" width="2" height="2" id="rect44"/>
    <rect x="40" y="70" width="2" height="2" id="rect45"/>
    <rect x="44" y="70" width="2" height="2" id="rect46"/>
    <rect x="48" y="70" width="2" height="2" id="rect47"/>
    <rect x="52" y="70" width="2" height="2" id="rect48"/>
    <rect x="56" y="70" width="2" height="2" id="rect49"/>
  </g>
  <rect x="5" y="74" width="48" height="14" fill="#5e6e70" id="rect50"/>
  <rect x="9" y="77" width="12" height="8" fill="#cccccc" id="rect51"/>
  <path d="m 10.5,78.2 h 9 v 5.4 h -2 v 1.1 h -5 v -1.1 h -2 z" fill="#333333" id="path51"/>
  <rect x="26" y="77" width="12" height="8" fill="#cccccc" id="rect54"/>
  <path d="m 27.5,78.2 h 9 v 5.4 h -2 v 1.1 h -5 v -1.1 h -2 z" fill="#333333" id="path54"/>
  <circle cx="47.200001" cy="81" r="2.8" fill="#1a1a1a" id="circle56"/>
  <circle cx="47.200001" cy="81" r="1.35" fill="#5ded5d" id="circle57"/>
  <rect x="43" y="9.5" width="8" height="5.1999998" rx="0.60000002" fill="#c9c8c1" id="rect58"/>
  <rect x="45" y="7.5" width="8" height="5.1999998" rx="0.60000002" fill="#9a9a9a" id="rect59"/>
</svg>
