<?xml version="1.0" encoding="UTF-8"?>
<svg width="729.52197" height="148.00101" viewBox="0 0 193.01936 39.1586" version="1.1" id="svg1" xml:space="preserve" xmlns:xlink="http://www.w3.org/1999/xlink" xmlns="http://www.w3.org/2000/svg" xmlns:svg="http://www.w3.org/2000/svg">
  <defs id="defs1">
    <linearGradient id="linearGradient5">
      <stop style="stop-color:#0678ff;stop-opacity:1;" offset="0" id="stop5"/>
      <stop style="stop-color:#5f98f2;stop-opacity:1;" offset="0.5" id="stop7"/>
      <stop style="stop-color:#0678ff;stop-opacity:1;" offset="1" id="stop6"/>
    </linearGradient>
    <linearGradient xmlns:xlink="http://www.w3.org/1999/xlink" xlink:href="#linearGradient5" id="linearGradient6" x1="10.855902" y1="111.01751" x2="12.911074" y2="111.01751" gradientUnits="userSpaceOnUse" gradientTransform="translate(-8.5165026,-89.98388)"/>
  </defs>
  <g id="layer2" style="display:inline">
    <rect style="display:inline;fill:#c2c2c8;fill-opacity:1;stroke-width:28.0569;stroke-linecap:square;stroke-miterlimit:2;paint-order:markers stroke fill" id="rect7" width="193.01932" height="37.610786" x="-1.7763568e-15" y="0"/>
    <rect style="display:inline;fill:#898985;fill-opacity:1;stroke-width:26.4583;stroke-linecap:square;stroke-miterlimit:2;paint-order:markers stroke fill" id="rect2" width="83.274368" height="17.333935" x="15.74207" y="11.837494"/>
    <path id="rect1" style="display:inline;fill:#333333;stroke-width:27.1456;stroke-linecap:square;stroke-miterlimit:2;paint-order:markers stroke fill" d="m 23.905072,13.0625 v 1.942787 H 22.483517 V 17.2228 h -3.710496 v 9.82834 H 34.423228 V 17.2228 h -3.710501 v -2.217513 h -1.42155 V 13.0625 Z"/>
    <path id="path1-1" style="display:inline;opacity:1;fill:#252222;fill-opacity:1;stroke-width:26.6709;stroke-linecap:square;stroke-miterlimit:2;paint-order:markers stroke fill" d="M 22.990593,5.8614805 V 8.303192 h 0.288872 V 7.355963 h 0.509013 c 0.124659,0 0.232961,-0.030404 0.325561,-0.091984 0.09255,-0.061581 0.164491,-0.1484833 0.215491,-0.2604492 0.0519,-0.1119649 0.07803,-0.2432238 0.07803,-0.3932577 0,-0.1511538 -0.02613,-0.2823253 -0.07803,-0.3942912 -0.05099,-0.1119638 -0.122891,-0.1988692 -0.215491,-0.2604492 -0.09256,-0.0627 -0.200902,-0.094051 -0.325561,-0.094051 h -0.509013 z m 2.987415,0 V 8.303192 h 0.289388 1.034045 V 7.9776304 H 26.267396 V 7.2536436 h 0.877983 V 6.9280821 H 26.267396 V 6.187042 h 1.034045 V 5.8614805 h -1.034045 z m 2.221053,0.00465 v 2.462382 h 0.24443 v -2.462382 z m 0.551904,0 v 2.462382 H 28.98506 V 6.3937478 l 0.969966,1.9347656 h 0.250631 V 5.8661314 H 29.971563 V 7.7993468 L 29.001596,5.8661314 Z m -5.4715,0.3209106 h 0.518831 c 0.09448,0 0.169743,0.039012 0.226343,0.116272 0.0576,0.077256 0.08682,0.1793172 0.08682,0.306958 0,0.1254009 -0.02922,0.2271143 -0.08682,0.3043742 -0.05666,0.077255 -0.131943,0.1157552 -0.226343,0.1157552 h -0.518831 z m 1.789555,0.3477824 c -0.19267,0 -0.342255,0.065372 -0.448035,0.1963705 -0.10575,0.1310008 -0.158647,0.3160013 -0.158647,0.5544881 v 0.2837036 c 0,0.2407258 0.05287,0.4279672 0.158647,0.5612061 0.10578,0.1321209 0.255365,0.1979207 0.448035,0.1979207 0.192669,0 0.341728,-0.065371 0.447517,-0.1963704 0.10575,-0.1321199 0.158647,-0.317983 0.158647,-0.5575887 V 7.285683 c 0,-0.2384868 -0.05287,-0.4234873 -0.158647,-0.5544881 C 25.410748,6.600195 25.261689,6.5348244 25.06902,6.5348235 Z m 0,0.3260783 c 0.101029,0 0.178777,0.036688 0.233577,0.1105876 0.0557,0.073897 0.08372,0.1787138 0.08372,0.3141927 v 0.2888713 c 0,0.1354788 -0.02802,0.240723 -0.08372,0.315743 -0.05476,0.075014 -0.132518,0.1126546 -0.233577,0.1126546 -0.10011,0 -0.178395,-0.037635 -0.234095,-0.1126546 -0.0557,-0.075017 -0.0832,-0.1802642 -0.0832,-0.315743 V 7.285683 c 0,-0.1354789 0.0275,-0.2402928 0.0832,-0.3141927 0.05572,-0.073898 0.133985,-0.1105876 0.234095,-0.1105885 z"/>
    <path id="rect1-87" style="display:inline;fill:#333333;stroke-width:27.1456;stroke-linecap:square;stroke-miterlimit:2;paint-order:markers stroke fill" d="m 44.425582,13.062487 v 1.942787 h -1.421555 v 2.217516 h -3.710496 v 9.82834 h 15.650207 v -9.82834 h -3.710501 v -2.217516 h -1.42155 v -1.942787 z"/>
    <path id="rect1-87-7" style="display:inline;fill:#333333;stroke-width:27.1456;stroke-linecap:square;stroke-miterlimit:2;paint-order:markers stroke fill" d="m 64.946456,13.06249 v 1.94278 h -1.421555 v 2.21752 h -3.710496 v 9.82834 h 15.650207 v -9.82834 h -3.710501 v -2.21752 h -1.42155 v -1.94278 z"/>
    <path id="rect1-87-7-4" style="display:inline;fill:#333333;stroke-width:27.1456;stroke-linecap:square;stroke-miterlimit:2;paint-order:markers stroke fill" d="m 85.467328,13.06249 v 1.94278 h -1.421555 v 2.21752 h -3.710496 v 9.82834 h 15.650205 v -9.82834 h -3.7105 v -2.21752 h -1.421549 v -1.94278 z"/>
    <rect style="display:inline;fill:#898985;fill-opacity:1;stroke-width:26.4583;stroke-linecap:square;stroke-miterlimit:2;paint-order:markers stroke fill" id="rect2-03" width="83.274368" height="17.333935" x="99.507866" y="11.837494"/>
    <path id="rect1-91" style="display:inline;fill:#333333;stroke-width:27.1456;stroke-linecap:square;stroke-miterlimit:2;paint-order:markers stroke fill" d="m 107.67087,13.0625 v 1.942787 h -1.42156 V 17.2228 h -3.71049 v 9.82834 h 15.6502 V 17.2228 h -3.7105 v -2.217513 h -1.42155 V 13.0625 Z"/>
    <path id="rect1-87-5" style="display:inline;fill:#333333;stroke-width:27.1456;stroke-linecap:square;stroke-miterlimit:2;paint-order:markers stroke fill" d="m 128.19138,13.062487 v 1.942787 h -1.42156 v 2.217516 h -3.71049 v 9.82834 h 15.6502 v -9.82834 h -3.7105 v -2.217516 h -1.42155 v -1.942787 z"/>
    <path id="rect1-87-7-8" style="display:inline;fill:#333333;stroke-width:27.1456;stroke-linecap:square;stroke-miterlimit:2;paint-order:markers stroke fill" d="m 148.71225,13.06249 v 1.94278 h -1.42155 v 2.21752 h -3.7105 v 9.82834 h 15.65021 v -9.82834 h -3.7105 v -2.21752 h -1.42155 v -1.94278 z"/>
    <path id="rect1-87-7-4-7" style="display:inline;fill:#333333;stroke-width:27.1456;stroke-linecap:square;stroke-miterlimit:2;paint-order:markers stroke fill" d="m 169.23312,13.06249 v 1.94278 h -1.42155 v 2.21752 h -3.7105 v 9.82834 h 15.65021 v -9.82834 h -3.7105 v -2.21752 h -1.42155 v -1.94278 z"/>
    <path id="rect5" style="display:inline;fill:url(#linearGradient6);stroke-width:28.3213;stroke-linecap:square;stroke-miterlimit:2;paint-order:markers stroke fill" d="m 3.3672445,11.73937 a 1.0275093,1.0275093 0 0 0 -1.027845,1.02733 v 16.53387 a 1.0275093,1.0275093 0 0 0 1.027845,1.02732 1.0275093,1.0275093 0 0 0 1.027327,-1.02732 V 12.7667 a 1.0275093,1.0275093 0 0 0 -1.027327,-1.02733 z"/>
    <path id="rect7-0" style="display:inline;opacity:0.5;fill:#252222;fill-opacity:1;stroke-width:26.6709;stroke-linecap:square;stroke-miterlimit:2;paint-order:markers stroke fill" d="m 165.41727,5.1015784 c -1.10115,-1.708e-4 -1.99385,0.8925284 -1.99368,1.993677 1.1e-4,1.1009467 0.89273,1.9933307 1.99368,1.99316 h 13.0178 c 1.10095,1.707e-4 1.99357,-0.8922133 1.99368,-1.99316 1.7e-4,-1.1011486 -0.89253,-1.9938478 -1.99368,-1.993677 z m 7.4967,0.747242 c 0.14544,0 0.27276,0.03764 0.38137,0.112654 0.10861,0.0739 0.19268,0.178714 0.25218,0.314193 0.0604,0.134359 0.0904,0.291972 0.0904,0.473356 v 0.691947 c 0,0.180265 -0.03,0.338395 -0.0904,0.473873 -0.0595,0.135478 -0.14357,0.240726 -0.25218,0.315743 -0.10861,0.0739 -0.23593,0.110588 -0.38137,0.110588 -0.14546,0 -0.27225,-0.03669 -0.38086,-0.110588 -0.10862,-0.07502 -0.19328,-0.180265 -0.25373,-0.315743 -0.0595,-0.135478 -0.0889,-0.293608 -0.0889,-0.473873 v -0.691947 c 0,-0.181384 0.0294,-0.338997 0.0889,-0.473356 0.0604,-0.135479 0.1451,-0.240295 0.25373,-0.314193 0.10861,-0.07502 0.2354,-0.112654 0.38086,-0.112654 z m -5.90972,0.02532 h 0.28888 0.50901 c 0.12466,0 0.233,0.03135 0.32556,0.09405 0.0926,0.06158 0.16449,0.148485 0.21548,0.260449 0.0519,0.111966 0.078,0.243138 0.078,0.394292 0,0.150034 -0.0261,0.281292 -0.078,0.393257 -0.051,0.111966 -0.12293,0.198868 -0.21548,0.260449 -0.0926,0.06158 -0.2009,0.09198 -0.32556,0.09198 h -0.50901 v 0.947229 h -0.28888 z m 2.98741,0 h 0.2894 1.03405 v 0.325562 h -1.03405 v 0.74104 h 0.87798 v 0.325561 h -0.87798 v 0.723987 h 1.03405 v 0.325561 h -1.03405 -0.2894 z m 3.89279,0 h 0.28888 v 1.570447 c 0,0.178025 0.0381,0.315484 0.11368,0.412895 0.0755,0.09741 0.182,0.146244 0.31988,0.146244 0.13883,0 0.24638,-0.04883 0.32194,-0.146244 0.0765,-0.09741 0.11473,-0.23487 0.11473,-0.412895 v -1.570447 h 0.28886 v 1.558561 c 0,0.288872 -0.0636,0.512803 -0.19016,0.671794 -0.12657,0.157872 -0.30493,0.236678 -0.53537,0.236678 -0.22949,0 -0.40726,-0.07881 -0.53381,-0.236678 -0.12561,-0.158991 -0.18862,-0.382922 -0.18862,-0.671794 z m 1.50999,0 h 1.45366 v 0.325562 h -0.58239 v 2.116149 h -0.28887 v -2.116149 h -0.5824 z m -2.48047,0.312126 c -0.12845,0 -0.23166,0.05064 -0.31005,0.151412 -0.0784,0.09965 -0.11731,0.23263 -0.11731,0.399458 v 0.715719 c 0,0.165709 0.0389,0.29869 0.11731,0.399459 0.0784,0.100769 0.18161,0.151412 0.31005,0.151412 0.12939,0 0.23313,-0.05064 0.31058,-0.151412 0.0784,-0.100769 0.1173,-0.23375 0.1173,-0.399459 v -0.715719 c 0,-0.166828 -0.0389,-0.299809 -0.1173,-0.399458 -0.0774,-0.100769 -0.18119,-0.151412 -0.31058,-0.151412 z m -5.62084,0.01344 v 0.843359 h 0.51883 c 0.0944,0 0.16968,-0.0385 0.22634,-0.115755 0.0576,-0.07726 0.0868,-0.178973 0.0868,-0.304374 0,-0.127641 -0.0292,-0.229702 -0.0868,-0.306958 -0.0566,-0.07726 -0.13186,-0.116272 -0.22634,-0.116272 z m 1.78955,0.347782 c 0.19267,0 0.34173,0.06537 0.44752,0.19637 0.10578,0.131001 0.15865,0.316002 0.15865,0.554489 v 0.288871 c 0,0.239606 -0.0529,0.425469 -0.15865,0.557589 -0.10579,0.131 -0.25485,0.19637 -0.44752,0.19637 -0.19267,0 -0.34225,-0.0658 -0.44803,-0.197921 -0.10578,-0.133239 -0.15865,-0.32048 -0.15865,-0.561206 v -0.283703 c 0,-0.238487 0.0529,-0.423488 0.15865,-0.554489 0.10578,-0.130999 0.25536,-0.19637 0.44803,-0.19637 z m 0,0.326078 c -0.10011,0 -0.17837,0.03669 -0.23409,0.110588 -0.0557,0.0739 -0.0832,0.178714 -0.0832,0.314193 v 0.288871 c 0,0.135479 0.0275,0.240726 0.0832,0.315743 0.0557,0.07502 0.13398,0.112654 0.23409,0.112654 0.10106,0 0.17881,-0.03764 0.23357,-0.112654 0.0557,-0.07502 0.0837,-0.180264 0.0837,-0.315743 v -0.288871 c 0,-0.135479 -0.028,-0.240296 -0.0837,-0.314193 -0.0548,-0.0739 -0.13254,-0.110588 -0.23357,-0.110588 z"/>
    <path id="rect7-0-1" style="display:inline;opacity:1;fill:#252222;fill-opacity:1;stroke-width:26.6709;stroke-linecap:square;stroke-miterlimit:2;paint-order:markers stroke fill" d="m 20.08922,5.1015786 c -1.101146,-1.708e-4 -1.993847,0.8925293 -1.993677,1.9936768 1.1e-4,1.1009456 0.892731,1.9933307 1.993677,1.99316 h 13.01781 c 1.100949,1.707e-4 1.993567,-0.8922144 1.993677,-1.99316 1.7e-4,-1.1011475 -0.892528,-1.9938476 -1.993677,-1.9936768 z m 0.01447,0.2392619 h 12.988355 c 0.969011,-1.503e-4 1.754565,0.7854051 1.754415,1.7544149 -9.7e-5,0.9688322 -0.78558,1.7540484 -1.754415,1.7538982 H 20.103689 C 19.134856,8.8493038 18.349371,8.0640876 18.349274,7.0952554 18.349124,6.1262456 19.13468,5.3406902 20.10369,5.3408405 Z"/>
    <path d="m 11.325527,19.131518 c 0,-0.283125 0.09317,-0.546307 0.279515,-0.789556 0.186345,-0.243248 0.670429,-0.36487 1.452267,-0.36487 v 2.948872 l -0.133682,0.430667 c -0.06887,0.219322 -0.153935,0.415712 -0.25521,0.589176 -0.101274,0.173464 -0.220776,0.323996 -0.358509,0.451602 -0.137733,0.127605 -0.29268,0.23228 -0.464847,0.314028 -0.172166,0.08175 -0.361546,0.142558 -0.568146,0.182435 0.0162,-0.08773 0.02836,-0.175456 0.03646,-0.263185 0.0081,-0.08773 0.01215,-0.173463 0.01215,-0.257204 z M 8.566828,18.312055 h 0.3463565 v 0.334963 H 8.566828 Z m 0.3463565,0.508426 h 0.3463564 v 0.334963 H 8.9131845 Z M 8.566828,19.245167 H 8.9131845 V 19.58013 H 8.566828 Z M 8.2204716,19.747611 H 8.566828 v 0.340945 H 8.2204716 Z M 7.5277587,17.97111 h 0.3463565 v 0.340945 H 7.5277587 Z m 1.7317822,4.402373 c 0,0.2911 0.053675,0.544314 0.1610254,0.759648 0.1073507,0.215335 0.2258399,0.394778 0.3554711,0.538334 0.129631,0.143556 0.2481206,0.250225 0.3554706,0.320009 l 0.161026,0.104676 c -0.4334542,0 -0.8213291,-0.06081 -1.1636363,-0.182435 C 8.7865905,23.792091 8.4969503,23.622617 8.2599684,23.405289 8.0229865,23.187961 7.8417082,22.931756 7.716128,22.636668 7.5905479,22.34158 7.5277587,22.022571 7.5277587,21.679631 v -2.775409 h 0.3463565 v 1.85426 H 8.2204716 V 20.423519 H 8.566828 v 0.747685 h 0.3463565 v -1.256111 h 0.3463564 z m 1.2760501,0.699834 c 0.320027,0.01196 0.613718,-0.01196 0.881082,-0.07178 0.267364,-0.05982 0.507381,-0.158509 0.720057,-0.296084 0.212676,-0.137574 0.39598,-0.315023 0.549917,-0.532352 0.153937,-0.217328 0.277489,-0.47752 0.370662,-0.780584 v 0.287112 c 0,0.326989 -0.0557,0.631045 -0.167102,0.912176 -0.111402,0.281131 -0.274451,0.528364 -0.489152,0.741704 -0.214702,0.213341 -0.475986,0.385805 -0.78386,0.517398 -0.307874,0.131594 -0.658278,0.209352 -1.051222,0.233278 l -0.206599,-0.107666 c -0.0162,-0.01196 -0.149884,-0.116638 -0.4010438,-0.314028 -0.2511604,-0.19739 -0.4233241,-0.495465 -0.5164964,-0.894232 0.1377331,0.08374 0.2967312,0.152527 0.4769997,0.206361 0.1802685,0.05383 0.3858515,0.08673 0.6167575,0.09869 z M 8.2204716,18.653 h 0.34028 v 0.334963 h -0.34028 z" id="path1" style="display:inline;fill:#201e1e;fill-opacity:1;fill-rule:evenodd;stroke:none;stroke-width:0.218751"/>
    <path style="font-size:3.43958px;line-height:1;font-family:Arial;-inkscape-font-specification:Arial;text-align:center;letter-spacing:-0.161396px;word-spacing:0px;text-anchor:middle;fill:#201e1e;stroke-width:26.4583;stroke-linecap:square;stroke-miterlimit:2;paint-order:markers stroke fill" d="M 27.184857,33.96362 H 26.88255 v -1.92637 c -0.07278,0.0694 -0.168509,0.13884 -0.287192,0.20826 -0.117563,0.0694 -0.223371,0.12148 -0.317422,0.15619 v -0.29223 c 0.169068,-0.0795 0.316862,-0.17578 0.443383,-0.28887 0.126521,-0.11309 0.216094,-0.22281 0.268718,-0.32918 h 0.19482 z" id="text7" aria-label="1 2 3 4 5 6 7 8"/>
    <path style="font-size:3.43958px;line-height:1;font-family:Arial;-inkscape-font-specification:Arial;text-align:center;letter-spacing:-0.161396px;word-spacing:0px;text-anchor:middle;display:inline;fill:#201e1e;stroke-width:26.4583;stroke-linecap:square;stroke-miterlimit:2;paint-order:markers stroke fill" d="m 109.4385,33.3187 0.31742,-0.0269 c 0.0235,0.15451 0.0778,0.27096 0.16291,0.34934 0.0862,0.0773 0.18978,0.11588 0.3107,0.11588 0.14556,0 0.26872,-0.0549 0.36949,-0.16459 0.10077,-0.10973 0.15115,-0.25528 0.15115,-0.43666 0,-0.17243 -0.0487,-0.30847 -0.14611,-0.40812 -0.0963,-0.0996 -0.22281,-0.14947 -0.37956,-0.14947 -0.0974,0 -0.18531,0.0224 -0.26368,0.0672 -0.0784,0.0437 -0.13996,0.10077 -0.18475,0.1713 l -0.28383,-0.0369 0.23849,-1.26465 h 1.22435 V 31.824 h -0.98251 l -0.13268,0.66171 c 0.1478,-0.10301 0.30287,-0.15451 0.46522,-0.15451 0.21497,0 0.39636,0.0745 0.54416,0.22337 0.1478,0.14891 0.22169,0.34037 0.22169,0.57438 0,0.22281 -0.0649,0.4154 -0.19482,0.57775 -0.15788,0.19929 -0.37341,0.29894 -0.64661,0.29894 -0.22393,0 -0.40699,-0.0627 -0.54919,-0.1881 -0.14107,-0.1254 -0.22169,-0.29167 -0.24184,-0.4988 z" id="text7-8" aria-label="1 2 3 4 5 6 7 8"/>
    <path style="font-size:3.43958px;line-height:1;font-family:Arial;-inkscape-font-specification:Arial;text-align:center;letter-spacing:-0.161396px;word-spacing:0px;text-anchor:middle;display:inline;fill:#201e1e;stroke-width:26.4583;stroke-linecap:square;stroke-miterlimit:2;paint-order:markers stroke fill" d="m 88.651222,33.96362 v -0.5895 h -1.06816 V 33.097 l 1.12358,-1.5955 h 0.24688 v 1.5955 h 0.33254 v 0.27712 h -0.33254 v 0.5895 z m 0,-0.86662 v -1.11013 l -0.77089,1.11013 z" id="text7-8-5" aria-label="1 2 3 4 5 6 7 8"/>
    <path style="font-size:3.43958px;line-height:1;font-family:Arial;-inkscape-font-specification:Arial;text-align:center;letter-spacing:-0.161396px;word-spacing:0px;text-anchor:middle;display:inline;fill:#201e1e;stroke-width:26.4583;stroke-linecap:square;stroke-miterlimit:2;paint-order:markers stroke fill" d="m 67.223229,33.31366 0.302307,-0.0403 c 0.03471,0.17131 0.09349,0.29503 0.176345,0.37117 0.08398,0.075 0.185863,0.11252 0.305666,0.11252 0.142196,0 0.261999,-0.0493 0.359409,-0.14779 0.09853,-0.0985 0.147795,-0.22058 0.147795,-0.36613 0,-0.13884 -0.04535,-0.25305 -0.136038,-0.34262 -0.09069,-0.0907 -0.206017,-0.13603 -0.345974,-0.13603 -0.0571,0 -0.128198,0.0112 -0.213294,0.0336 l 0.03359,-0.26536 c 0.02015,0.002 0.03639,0.003 0.0487,0.003 0.12876,0 0.244644,-0.0336 0.347653,-0.10077 0.103008,-0.0672 0.154512,-0.17075 0.154512,-0.31071 0,-0.11084 -0.03751,-0.20265 -0.112525,-0.27543 -0.07502,-0.0728 -0.171868,-0.10917 -0.290551,-0.10917 -0.117563,0 -0.215533,0.037 -0.293909,0.11085 -0.07838,0.0739 -0.128761,0.18474 -0.151154,0.33254 l -0.302306,-0.0537 c 0.03695,-0.20265 0.120921,-0.3594 0.251922,-0.47025 0.130999,-0.11197 0.293909,-0.16795 0.488729,-0.16795 0.134359,0 0.258081,0.0291 0.371166,0.0873 0.113085,0.0571 0.199299,0.13551 0.25864,0.23513 0.06046,0.0996 0.09069,0.20545 0.09069,0.31742 0,0.10637 -0.02855,0.20322 -0.08565,0.29055 -0.0571,0.0873 -0.141634,0.15675 -0.253602,0.20826 0.145555,0.0336 0.25864,0.10358 0.339255,0.20993 0.08062,0.10525 0.120923,0.23737 0.120923,0.39636 0,0.21497 -0.07838,0.39748 -0.235128,0.54751 -0.156751,0.14891 -0.35493,0.22337 -0.594536,0.22337 -0.216093,0 -0.395798,-0.0644 -0.539114,-0.19314 -0.142196,-0.12876 -0.223371,-0.29559 -0.243525,-0.50048 z" id="text7-8-7" aria-label="1 2 3 4 5 6 7 8"/>
    <path style="font-size:3.43958px;line-height:1;font-family:Arial;-inkscape-font-specification:Arial;text-align:center;letter-spacing:-0.161396px;word-spacing:0px;text-anchor:middle;display:inline;fill:#201e1e;stroke-width:26.4583;stroke-linecap:square;stroke-miterlimit:2;paint-order:markers stroke fill" d="m 48.243466,33.67307 v 0.29055 h -1.627419 c -0.0023,-0.0728 0.0095,-0.14276 0.03527,-0.20994 0.04143,-0.11085 0.107486,-0.22001 0.198179,-0.3275 0.09181,-0.10749 0.223931,-0.23177 0.396358,-0.37284 0.267598,-0.21945 0.448422,-0.393 0.542473,-0.52064 0.09405,-0.12876 0.141077,-0.25024 0.141077,-0.36445 0,-0.1198 -0.04311,-0.22057 -0.129321,-0.30231 -0.08509,-0.0828 -0.196499,-0.12428 -0.334217,-0.12428 -0.145555,0 -0.261999,0.0437 -0.349332,0.131 -0.08733,0.0873 -0.13156,0.20826 -0.132679,0.36277 l -0.310704,-0.0319 c 0.02127,-0.23177 0.101329,-0.40811 0.240166,-0.52904 0.138837,-0.12204 0.32526,-0.18306 0.559267,-0.18306 0.236247,0 0.42323,0.0655 0.560947,0.1965 0.137718,0.131 0.206577,0.29335 0.206577,0.48705 0,0.0985 -0.02015,0.19538 -0.06046,0.29055 -0.04031,0.0952 -0.107486,0.19538 -0.201537,0.30063 -0.09293,0.10525 -0.248004,0.24968 -0.465217,0.4333 -0.181384,0.15227 -0.297828,0.25584 -0.349332,0.31071 -0.05151,0.0537 -0.09405,0.10804 -0.127641,0.16291 z" id="text7-8-3" aria-label="1 2 3 4 5 6 7 8"/>
    <path style="font-size:3.43958px;line-height:1;font-family:Arial;-inkscape-font-specification:Arial;text-align:center;letter-spacing:-0.161396px;word-spacing:0px;text-anchor:middle;display:inline;fill:#201e1e;stroke-width:26.4583;stroke-linecap:square;stroke-miterlimit:2;paint-order:markers stroke fill" d="m 171.4099,32.62843 c -0.1254,-0.0459 -0.21833,-0.11143 -0.27879,-0.1965 -0.0605,-0.0851 -0.0907,-0.18698 -0.0907,-0.30567 0,-0.17914 0.0644,-0.32973 0.19314,-0.45178 0.12876,-0.12204 0.30007,-0.18306 0.51392,-0.18306 0.21497,0 0.38796,0.0627 0.51896,0.1881 0.131,0.12428 0.1965,0.27599 0.1965,0.45514 0,0.11421 -0.0302,0.21386 -0.0907,0.29895 -0.0593,0.084 -0.15003,0.14891 -0.27208,0.19482 0.15116,0.0493 0.26592,0.12876 0.3443,0.23849 0.0795,0.10972 0.11924,0.24072 0.11924,0.39299 0,0.0482 -0.004,0.0945 -0.0117,0.13917 -0.0263,0.1505 -0.0968,0.28102 -0.21169,0.39155 -0.14891,0.14331 -0.34485,0.21497 -0.58781,0.21497 -0.24297,0 -0.43891,-0.0717 -0.58782,-0.21497 -0.14892,-0.14443 -0.22338,-0.32414 -0.22338,-0.53911 0,-0.16011 0.0403,-0.29391 0.12093,-0.4014 0.0817,-0.10861 0.19762,-0.1825 0.34765,-0.22169 z m -0.0605,-0.51224 c 0,0.11644 0.0375,0.21161 0.11253,0.28551 0.075,0.0739 0.17242,0.11084 0.29223,0.11084 0.11644,0 0.21161,-0.0364 0.28551,-0.10916 0.075,-0.0739 0.11252,-0.16403 0.11252,-0.2704 0,-0.11085 -0.0386,-0.20378 -0.11588,-0.27879 -0.0761,-0.0761 -0.17131,-0.11421 -0.28551,-0.11421 -0.11533,0 -0.21106,0.0369 -0.28719,0.11085 -0.0761,0.0739 -0.11421,0.16235 -0.11421,0.26536 z m -0.0974,1.13701 c 0,0.0862 0.0202,0.16963 0.0605,0.25024 0.0414,0.0806 0.10245,0.14331 0.18307,0.1881 0.0806,0.0437 0.16738,0.0655 0.26031,0.0655 0.14444,0 0.26368,-0.0465 0.35773,-0.1394 0.094,-0.0929 0.14108,-0.21105 0.14108,-0.35437 0,-0.14555 -0.0487,-0.26592 -0.14611,-0.36109 -0.0963,-0.0952 -0.21722,-0.14275 -0.36277,-0.14275 -0.1422,0 -0.26032,0.047 -0.35437,0.14107 -0.0929,0.094 -0.1394,0.21162 -0.1394,0.3527 z" id="text7-0" aria-label="1 2 3 4 5 6 7 8"/>
    <path style="font-size:3.43958px;line-height:1;font-family:Arial;-inkscape-font-specification:Arial;text-align:center;letter-spacing:-0.161396px;word-spacing:0px;text-anchor:middle;display:inline;fill:#201e1e;stroke-width:26.4583;stroke-linecap:square;stroke-miterlimit:2;paint-order:markers stroke fill" d="m 150.42821,31.82396 v -0.29055 h 1.59383 v 0.23512 c -0.15675,0.16683 -0.31238,0.38853 -0.46689,0.66508 -0.1534,0.27655 -0.27208,0.56095 -0.35606,0.85318 -0.0605,0.20601 -0.0991,0.43162 -0.11588,0.67683 h -0.3107 c 0.003,-0.1937 0.0414,-0.42771 0.1142,-0.70203 0.0728,-0.27431 0.17691,-0.53855 0.31238,-0.79271 0.1366,-0.25528 0.2816,-0.47025 0.43499,-0.64492 z" id="text7-0-3" aria-label="1 2 3 4 5 6 7 8"/>
    <path style="font-size:3.43958px;line-height:1;font-family:Arial;-inkscape-font-specification:Arial;text-align:center;letter-spacing:-0.161396px;word-spacing:0px;text-anchor:middle;display:inline;fill:#201e1e;stroke-width:26.4583;stroke-linecap:square;stroke-miterlimit:2;paint-order:markers stroke fill" d="m 131.50245,32.10443 -0.30063,0.0235 c -0.0269,-0.11868 -0.0649,-0.20489 -0.1142,-0.25864 -0.0817,-0.0862 -0.1825,-0.12932 -0.30231,-0.12932 -0.0963,0 -0.18082,0.0269 -0.2536,0.0806 -0.0952,0.0694 -0.17019,0.17075 -0.22505,0.30398 -0.0549,0.13324 -0.0834,0.32302 -0.0857,0.56935 0.0728,-0.11085 0.16179,-0.19314 0.26704,-0.24689 0.10524,-0.0537 0.21553,-0.0806 0.33086,-0.0806 0.20153,0 0.37284,0.0745 0.51392,0.22337 0.14219,0.14779 0.21329,0.33925 0.21329,0.57438 0,0.15451 -0.0336,0.29839 -0.10077,0.43163 -0.0661,0.13212 -0.15731,0.23345 -0.27375,0.30399 -0.11645,0.0705 -0.24857,0.1058 -0.39636,0.1058 -0.25192,0 -0.45738,-0.0924 -0.61637,-0.27711 -0.15899,-0.18586 -0.23849,-0.49153 -0.23849,-0.917 0,-0.47585 0.0879,-0.82183 0.26368,-1.03792 0.15339,-0.1881 0.35997,-0.28215 0.61973,-0.28215 0.1937,0 0.35213,0.0543 0.47529,0.16291 0.12428,0.10861 0.19874,0.25864 0.22337,0.4501 z m -1.23442,1.06143 c 0,0.10413 0.0218,0.20378 0.0655,0.29895 0.0448,0.0952 0.10693,0.16795 0.18642,0.21833 0.0795,0.0493 0.16291,0.0739 0.25025,0.0739 0.12764,0 0.23736,-0.0515 0.32918,-0.15451 0.0918,-0.10301 0.13771,-0.24296 0.13771,-0.41987 0,-0.17019 -0.0453,-0.30399 -0.13603,-0.4014 -0.0907,-0.0985 -0.2049,-0.14779 -0.34262,-0.14779 -0.1366,0 -0.25248,0.0493 -0.34765,0.14779 -0.0952,0.0974 -0.14276,0.22561 -0.14276,0.3846 z" id="text7-0-6" aria-label="1 2 3 4 5 6 7 8"/>
    <path id="rect8" style="fill:#201e1e;fill-opacity:1;stroke-width:32.7934;stroke-linecap:square;stroke-miterlimit:2;paint-order:markers stroke fill" d="m 12.212698,37.61071 v 0.40669 c -6e-6,0.63017 0.510849,1.14102 1.141015,1.14101 h 14.42651 c 0.630166,10e-6 1.141021,-0.51084 1.141015,-1.14101 v -0.40669 z"/>
    <path id="rect8-9" style="display:inline;fill:#201e1e;fill-opacity:1;stroke-width:32.7934;stroke-linecap:square;stroke-miterlimit:2;paint-order:markers stroke fill" d="m 164.20942,37.61079 v 0.40669 c -1e-5,0.63017 0.51085,1.14102 1.14102,1.14101 h 14.42651 c 0.63016,10e-6 1.14102,-0.51084 1.14101,-1.14101 v -0.40669 z"/>
  </g>
</svg>
